<svg xmlns="http://www.w3.org/2000/svg" viewBox="0 0 46 30" width="46" height="30"><path d="M16 12c-6-8-14-9-15-5 1 5 8 7 15 7z" fill="#EAF2F4" fill-opacity=".75" stroke="#B9C7CC" stroke-width=".6"/><path d="M22 12c6-9 15-11 17-7-1 5-9 8-17 8z" fill="#EAF2F4" fill-opacity=".75" stroke="#B9C7CC" stroke-width=".6"/><path d="M34.5 13c3-3.6 5.2-4 7-6.8" stroke="#3A2716" stroke-width="1.3" fill="none"/><circle cx="41.8" cy="6" r="1.4" fill="#3A2716"/><path d="M35.5 12.4c3-.6 5.4-.2 7.6-1.6" stroke="#3A2716" stroke-width="1.3" fill="none"/><circle cx="43.3" cy="10.7" r="1.4" fill="#3A2716"/><path d="M31 21a5.6 5.6 0 1 0 5.6-9.4z" fill="#241710"/><circle cx="36.2" cy="14.6" r="1.25" fill="#FFF6E6"/><circle cx="33.6" cy="13.4" r=".9" fill="#FFF6E6"/><g stroke="#3A2716" stroke-width="1.4" stroke-linecap="round" fill="none"><path d="M15 21l-2 4"/><path d="M20 22l0 4"/><path d="M26 21l2 4"/></g><path d="M8 21c1-6 6-9 10.5-9s9.5 3 10.5 9z" fill="#241710"/><path d="M8 20.5C5.5 14 7 8.5 12 6.5c1.5 5 1 10-4 14z" fill="url(#s)" stroke="#5A230E" stroke-width="1"/><path d="M29 20.5c2.5-6.5 1-12-4-14-1.5 5-1 10 4 14z" fill="url(#s)" stroke="#5A230E" stroke-width="1"/><defs><linearGradient id="s" x1="0" y1="0" x2="0" y2="1"><stop offset="0" stop-color="#D2582E"/><stop offset="1" stop-color="#8B3614"/></linearGradient></defs><g fill="#1E120B"><circle cx="10" cy="12" r="1.6"/><circle cx="9.4" cy="17" r="1.4"/><circle cx="27" cy="12" r="1.6"/><circle cx="27.6" cy="17" r="1.4"/></g></svg>